PathFileType	4	(X/Y/Z)	/Users/itak/Documents/Research/Walk-IL/dataset/trc/00200_00008.trc
DataRate	CameraRate	NumFrames	NumMarkers	Units	OrigDataRate	OrigDataStartFrame	OrigNumFrames
100.000000	100.000000	4	53	mm	100.000000	68	550
Frame#	Time	RPSI			LPSI			L3			STRN			T10			C7			CLAV			RBAK			LBAK			LSHO			LUPA			LAEL			LAOL			LWTS			LWPS			LFRA			LIFD			LHPS			LHTS			RSHO			RUPA			RAEL			RAOL			RWTS			RWPS			RFRA			RIFD			RHTS			RHPS			RBHD			LFHD			RFHD			LBHD			LHIP			RHIP			RASI			LASI			LKNE			LTHI			LANK			LTIP			LTOE			LMT1			LMT5			LHEE			RKNE			RTHI			RANK			RTIP			RTOE			RMT1			RMT5			RHEE			
		X1	Y1	Z1	X2	Y2	Z2	X3	Y3	Z3	X4	Y4	Z4	X5	Y5	Z5	X6	Y6	Z6	X7	Y7	Z7	X8	Y8	Z8	X9	Y9	Z9	X10	Y10	Z10	X11	Y11	Z11	X12	Y12	Z12	X13	Y13	Z13	X14	Y14	Z14	X15	Y15	Z15	X16	Y16	Z16	X17	Y17	Z17	X18	Y18	Z18	X19	Y19	Z19	X20	Y20	Z20	X21	Y21	Z21	X22	Y22	Z22	X23	Y23	Z23	X24	Y24	Z24	X25	Y25	Z25	X26	Y26	Z26	X27	Y27	Z27	X28	Y28	Z28	X29	Y29	Z29	X30	Y30	Z30	X31	Y31	Z31	X32	Y32	Z32	X33	Y33	Z33	X34	Y34	Z34	X35	Y35	Z35	X36	Y36	Z36	X37	Y37	Z37	X38	Y38	Z38	X39	Y39	Z39	X40	Y40	Z40	X41	Y41	Z41	X42	Y42	Z42	X43	Y43	Z43	X44	Y44	Z44	X45	Y45	Z45	X46	Y46	Z46	X47	Y47	Z47	X48	Y48	Z48	X49	Y49	Z49	X50	Y50	Z50	X51	Y51	Z51	X52	Y52	Z52	X53	Y53	Z53	

69	0.68	-1714.063110351562	1056.1396484375	-578.2225952148438	-1708.681030273438	1055.301025390625	-702.7465209960938	-1708.982666015625	1092.193115234375	-638.0842895507812	-1451.964965820312	1300.070434570312	-635.108642578125	-1743.64453125	1246.654541015625	-647.0689086914062	-1679.735107421875	1516.218994140625	-659.0827026367188	-1479.527221679688	1413.163696289062	-646.656494140625	-1750.296264648438	1342.101318359375	-550.4089965820312	-1682.834106445312	1490.618896484375	-760.5999145507812	-1602.114013671875	1476.997192382812	-835.9342041015625	-1627.772338867188	1342.4228515625	-907.7685546875	-1602.6650390625	1122.003540039062	-916.7261352539062	-1657.147094726562	1108.720458984375	-848.4740600585938	-1491.849243164062	893.6961059570312	-865.2660522460938	-1566.046508789062	870.2125244140625	-913.9708862304688	-1584.337646484375	1011.636474609375	-925.2630615234375	-1473.411865234375	710.1041870117188	-835.8389282226562	-1543.34326171875	801.6115112304688	-905.8517456054688	-1475.070922851562	815.3297119140625	-881.2822875976562	-1623.83642578125	1497.1171875	-475.5699768066406	-1644.354736328125	1430.86474609375	-405.67724609375	-1646.48876953125	1141.059692382812	-347.5226745605469	-1652.653076171875	1131.856079101562	-445.552490234375	-1502.193603515625	917.24267578125	-365.3798522949219	-1575.004028320312	899.884033203125	-315.0503540039062	-1620.266357421875	1070.215087890625	-328.0660400390625	-1487.300048828125	725.8013916015625	-384.3225402832031	-1475.276245117188	823.6154174804688	-356.3850708007812	-1545.728759765625	818.1613159179688	-315.2149658203125	-1634.263549804688	1673.62255859375	-580.5673217773438	-1474.488403320312	1738.109985351562	-714.8034057617188	-1470.770874023438	1735.896728515625	-585.370849609375	-1645.119506835938	1682.774536132812	-717.7041015625	-1600.210571289062	991.31982421875	-815.108154296875	-1566.953735351562	1015.187622070312	-443.9597473144531	-1477.71142578125	1042.00146484375	-499.7518920898438	-1476.728637695312	1026.30029296875	-756.1943969726562	-1603.043334960938	494.0094909667969	-772.4645385742188	-1590.255615234375	635.6395263671875	-802.7946166992188	-1702.936645507812	41.91560363769531	-769.8020629882812	-1650.158813476562	274.4935607910156	-784.27197265625	-1479.909057617188	38.23651885986328	-760.3672485351562	-1529.366088867188	38.47117233276367	-709.8327026367188	-1597.128051757812	37.06986618041992	-815.6568603515625	-1748.419555664062	39.24834060668945	-696.8380126953125	-1584.51123046875	514.7888793945312	-452.4530334472656	-1523.988647460938	783.361083984375	-430.9700622558594	-1679.404907226562	37.04353332519531	-440.3067626953125	-1579.587158203125	397.7996215820312	-466.4918212890625	-1455.541625976562	40.84778594970703	-477.4822692871094	-1512.202758789062	38.60375213623047	-522.1412353515625	-1566.318725585938	36.55950927734375	-407.8095703125	-1730.329345703125	33.05973815917969	-507.7684020996094	
70	0.6900000000000001	-1713.996215820312	1056.285522460938	-578.6959838867188	-1708.630859375	1055.397216796875	-703.2247314453125	-1708.861572265625	1092.303100585938	-638.5371704101562	-1451.785400390625	1299.936767578125	-635.6124877929688	-1743.434448242188	1246.803100585938	-647.5276489257812	-1679.349243164062	1516.35009765625	-659.5672607421875	-1479.198120117188	1413.06494140625	-647.141357421875	-1749.950073242188	1342.234252929688	-550.84130859375	-1682.456909179688	1490.684448242188	-761.0577392578125	-1601.727172851562	1476.986938476562	-836.3883666992188	-1627.52587890625	1342.453735351562	-908.2282104492188	-1602.596313476562	1122.002197265625	-917.1776733398438	-1657.033081054688	1108.752075195312	-848.9193725585938	-1491.78271484375	893.6441040039062	-865.7297973632812	-1566.156616210938	870.2047119140625	-914.422119140625	-1584.34814453125	1011.628051757812	-925.7225952148438	-1474.735595703125	709.7772827148438	-836.9984741210938	-1543.42626953125	801.586669921875	-906.3016967773438	-1475.135009765625	815.2753295898438	-881.7579956054688	-1623.417602539062	1497.166625976562	-476.0329284667969	-1643.967651367188	1430.911865234375	-406.16845703125	-1646.226318359375	1141.100708007812	-348.0201721191406	-1652.3388671875	1131.892944335938	-446.0359191894531	-1501.994140625	917.2118530273438	-365.7095031738281	-1574.841918945312	899.9068603515625	-315.4623718261719	-1620.023315429688	1070.26904296875	-328.5330505371094	-1487.606201171875	725.409912109375	-384.6254577636719	-1475.041870117188	823.609375	-356.7049560546875	-1545.59619140625	818.1854248046875	-315.5867919921875	-1633.682495117188	1673.703979492188	-581.0353393554688	-1473.818115234375	1738.029541015625	-715.2438354492188	-1470.145751953125	1735.806030273438	-585.8272705078125	-1644.52783203125	1682.878540039062	-718.1893920898438	-1600.153930664062	991.3339233398438	-815.570068359375	-1567.317749023438	1015.210632324219	-444.5757141113281	-1477.59912109375	1041.950073242188	-500.185302734375	-1476.707275390625	1026.229614257812	-756.6434326171875	-1603.17626953125	493.9959716796875	-772.736572265625	-1590.196655273438	635.5492553710938	-803.0745849609375	-1702.9326171875	41.87396621704102	-769.8233032226562	-1650.203247070312	274.5014038085938	-784.4413452148438	-1479.904296875	38.2228889465332	-760.3723754882812	-1529.386962890625	38.46779632568359	-709.8294067382812	-1597.13134765625	37.04001617431641	-815.6818237304688	-1748.421752929688	39.2968635559082	-696.8951416015625	-1584.569458007812	514.7960205078125	-452.7342834472656	-1524.14501953125	783.3016357421875	-431.3795166015625	-1679.393188476562	37.08419418334961	-440.3492736816406	-1579.66064453125	397.8855285644531	-466.7151489257812	-1455.527221679688	40.83963775634766	-477.4832153320312	-1512.184814453125	38.58630752563477	-522.1544799804688	-1566.323364257812	36.58211898803711	-407.84228515625	-1730.298461914062	33.05580902099609	-507.8037414550781	
71	0.7000000000000001	-1713.919311523438	1056.4423828125	-579.1849365234375	-1708.561889648438	1055.49609375	-703.716064453125	-1708.7265625	1092.4169921875	-639.004150390625	-1451.602172851562	1299.819580078125	-636.1214599609375	-1743.223999023438	1246.954833984375	-648.0014038085938	-1678.9716796875	1516.496948242188	-660.0673828125	-1478.880004882812	1412.985229492188	-647.6409912109375	-1749.6044921875	1342.383544921875	-551.2898559570312	-1682.081665039062	1490.771728515625	-761.5357055664062	-1601.348388671875	1476.992431640625	-836.8555908203125	-1627.268432617188	1342.493286132812	-908.7000732421875	-1602.506713867188	1122.015014648438	-917.6593017578125	-1656.902099609375	1108.791748046875	-849.3916625976562	-1491.713500976562	893.6045532226562	-866.244873046875	-1566.220581054688	870.2078247070312	-914.917724609375	-1584.328369140625	1011.634216308594	-926.216552734375	-1476.186889648438	709.4237670898438	-838.2940063476562	-1543.433349609375	801.5711059570312	-906.79931640625	-1475.172485351562	815.256591796875	-882.279296875	-1623.00048828125	1497.2236328125	-476.5103149414062	-1643.575805664062	1430.963500976562	-406.6654357910156	-1645.968505859375	1141.146118164062	-348.5464477539062	-1652.017211914062	1131.940551757812	-446.5445556640625	-1501.768310546875	917.189208984375	-366.0815124511719	-1574.677368164062	899.9359741210938	-315.9271240234375	-1619.770874023438	1070.32470703125	-329.0302124023438	-1487.818115234375	725.0761108398438	-384.9912109375	-1474.720703125	823.6171264648438	-357.0927124023438	-1545.442993164062	818.220458984375	-316.0145874023438	-1633.078247070312	1673.796264648438	-581.5093383789062	-1473.123413085938	1737.93994140625	-715.706298828125	-1469.526733398438	1735.7177734375	-586.3197631835938	-1643.931640625	1683.004516601562	-718.6936645507812	-1600.099731445312	991.3558349609375	-816.0581665039062	-1567.444702148438	1015.2275390625	-445.1148376464844	-1477.477783203125	1041.904663085938	-500.6266174316406	-1476.721801757812	1026.15283203125	-757.1257934570312	-1603.315185546875	493.9952087402344	-773.0189819335938	-1590.140380859375	635.4681396484375	-803.3621215820312	-1702.926879882812	41.83015060424805	-769.8430786132812	-1650.248046875	274.5067138671875	-784.6069946289062	-1479.900146484375	38.20940017700195	-760.3792724609375	-1529.410034179688	38.46517562866211	-709.823974609375	-1597.13671875	37.00906372070312	-815.70849609375	-1748.423461914062	39.35596084594727	-696.9578247070312	-1584.604858398438	514.8060913085938	-453.0274963378906	-1524.296020507812	783.2294311523438	-431.8326721191406	-1679.3779296875	37.12811279296875	-440.3959045410156	-1579.7197265625	397.9773864746094	-466.96044921875	-1455.509887695312	40.83010864257812	-477.48583984375	-1512.165649414062	38.56567001342773	-522.1690063476562	-1566.307495117188	36.60808563232422	-407.88037109375	-1730.263671875	33.05069732666016	-507.8451232910156	
72	0.71	-1713.834350585938	1056.609130859375	-579.6876831054688	-1708.4736328125	1055.596557617188	-704.2188720703125	-1708.575317382812	1092.534301757812	-639.482421875	-1451.4052734375	1299.72216796875	-636.6355590820312	-1743.011474609375	1247.107421875	-648.4868774414062	-1678.599731445312	1516.652099609375	-660.576904296875	-1478.569091796875	1412.92333984375	-648.1539916992188	-1749.262939453125	1342.546264648438	-551.7542724609375	-1681.710815429688	1490.879272460938	-762.03173828125	-1600.981201171875	1477.015014648438	-837.3366088867188	-1626.998291015625	1342.540893554688	-909.182373046875	-1602.393310546875	1122.042358398438	-918.1703491210938	-1656.754272460938	1108.83935546875	-849.8919677734375	-1491.649658203125	893.5782470703125	-866.81201171875	-1566.231079101562	870.2218627929688	-915.4566650390625	-1584.274169921875	1011.654052734375	-926.7432861328125	-1477.65478515625	709.0684814453125	-839.661376953125	-1543.374389648438	801.565185546875	-907.3444213867188	-1475.187744140625	815.2671508789062	-882.848388671875	-1622.588256835938	1497.287353515625	-477.0013122558594	-1643.179931640625	1431.017700195312	-407.1648864746094	-1645.715576171875	1141.194458007812	-349.0976867675781	-1651.692504882812	1131.998291015625	-447.074462890625	-1501.516479492188	917.1787109375	-366.5025634765625	-1574.504760742188	899.970703125	-316.4415588378906	-1619.508666992188	1070.379638671875	-329.55419921875	-1487.900634765625	724.8348388671875	-385.4229125976562	-1474.3369140625	823.63818359375	-357.54638671875	-1545.264282226562	818.2642822265625	-316.4989929199219	-1632.44970703125	1673.897338867188	-581.9846801757812	-1472.408447265625	1737.839965820312	-716.1912231445312	-1468.901733398438	1735.631103515625	-586.8441162109375	-1643.337158203125	1683.152465820312	-719.2166748046875	-1600.041748046875	991.3839111328125	-816.5730590820312	-1567.431640625	1015.2392578125	-445.6116638183594	-1477.347900390625	1041.867553710938	-501.0715637207031	-1476.75732421875	1026.068481445312	-757.6309814453125	-1603.455322265625	494.0049743652344	-773.3090209960938	-1590.101928710938	635.402099609375	-803.660400390625	-1702.919799804688	41.78814315795898	-769.8612670898438	-1650.294677734375	274.5073547363281	-784.7682495117188	-1479.897338867188	38.19644165039062	-760.3880004882812	-1529.432983398438	38.46519088745117	-709.8182983398438	-1597.14501953125	36.97797012329102	-815.7362060546875	-1748.425170898438	39.42187118530273	-697.0214233398438	-1584.62353515625	514.81884765625	-453.333984375	-1524.398193359375	783.1561279296875	-432.31884765625	-1679.360229492188	37.17574691772461	-440.4468383789062	-1579.764892578125	398.0687866210938	-467.2299499511719	-1455.490600585938	40.82039260864258	-477.4905700683594	-1512.145385742188	38.54154968261719	-522.1854858398438	-1566.27294921875	36.63733291625977	-407.9241943359375	-1730.226318359375	33.04434204101562	-507.8938293457031	
